<svg xmlns="http://www.w3.org/2000/svg" viewBox="0 0 316 526"><defs><style>.cls-1{fill:#fff;}.cls-1,.cls-2{stroke:#000;stroke-miterlimit:10;}</style></defs><g id="Layer_2" data-name="Layer 2"><g id="Layer_1-2" data-name="Layer 1"><g id="Layer_2-2" data-name="Layer 2"><g id="Layer_1-2-2" data-name="Layer 1-2"><path class="cls-1" d="M169.36,228.39a9.35,9.35,0,0,1,1.18.47A8.06,8.06,0,0,0,169.36,228.39Zm56.08-24.08a2.91,2.91,0,0,0-.27-.24,3.61,3.61,0,0,1,.35.33Zm26.25,0a2.91,2.91,0,0,0-.27-.24,3.61,3.61,0,0,1,.35.33Z"/><path class="cls-2" d="M312.94,3.06A8.76,8.76,0,0,0,306.75.5H9.25A8.75,8.75,0,0,0,.5,9.25v507.5a8.74,8.74,0,0,0,8.73,8.75H306.75a8.74,8.74,0,0,0,8.75-8.73V9.25A8.76,8.76,0,0,0,312.94,3.06ZM298,508H18V18H298Z"/><path class="cls-2" d="M188.92,398.33a43.72,43.72,0,1,0,12.83,30.92A43.72,43.72,0,0,0,188.92,398.33ZM182.77,438a26.2,26.2,0,1,1-33.52-33.38V420.5a8.75,8.75,0,0,0,17.5,0V404.61A26.18,26.18,0,0,1,182.77,438Z"/><path class="cls-2" d="M277.94,38.06a8.76,8.76,0,0,0-6.19-2.56H44.25a8.75,8.75,0,0,0-8.75,8.75v262.5a8.76,8.76,0,0,0,6.18,8.37l113.75,35a8.83,8.83,0,0,0,5.14,0l113.75-35a8.75,8.75,0,0,0,6.18-8.37V44.25A8.76,8.76,0,0,0,277.94,38.06ZM263,300.29,158,332.6,53,300.29V53H263Z"/><path class="cls-2" d="M254.25,210.5c0,.17,0,.34,0,.51a2.34,2.34,0,0,1,0,.38,7.59,7.59,0,0,1-.25,1.36c0,.12-.06.23-.1.35s-.09.29-.14.43l-.15.37a7.6,7.6,0,0,1-.37.76L253,215a8.56,8.56,0,0,1-1.29,1.64l-.3.29a8.79,8.79,0,0,1-1.35,1l-.23.13-.51.27a9.5,9.5,0,0,1-1.19.47l-.41.12a8.84,8.84,0,0,1-2.2.27,8.75,8.75,0,0,1-5.22-15.75l.34-.24L241,203l.36-.21.38-.19q.38-.18.78-.33l.36-.12a8.72,8.72,0,0,1,2.66-.41,8.12,8.12,0,0,1,.86,0,7.91,7.91,0,0,1,.85.13l.25.05.44.12.14,0c.19.06.37.12.54.19a2.55,2.55,0,0,1,.35.14,3.54,3.54,0,0,1,.52.25l.25.13a6.36,6.36,0,0,1,.74.45,5.07,5.07,0,0,1,.46.35,3.4,3.4,0,0,1,.31.25,1.07,1.07,0,0,1,.19.18,2.91,2.91,0,0,1,.27.24l.08.09a7.14,7.14,0,0,1,.9,1.09c.08.12.17.24.24.37a3.25,3.25,0,0,1,.33.57,5.93,5.93,0,0,1,.34.72A8.67,8.67,0,0,1,254.25,210.5Z"/><path class="cls-2" d="M228,210.5c0,.17,0,.34,0,.51a2.34,2.34,0,0,1,0,.38,7.59,7.59,0,0,1-.25,1.36c0,.12-.06.23-.1.35s-.09.29-.14.43l-.15.37a7.6,7.6,0,0,1-.37.76l-.21.37a8.56,8.56,0,0,1-1.29,1.64l-.3.29a8.79,8.79,0,0,1-1.35,1l-.23.13-.51.27a9.5,9.5,0,0,1-1.19.47l-.41.12a8.84,8.84,0,0,1-2.2.27A8.75,8.75,0,0,1,214,203.48l.34-.24.36-.23.36-.21.38-.19q.38-.18.78-.33l.36-.12a8.72,8.72,0,0,1,2.66-.41,8.18,8.18,0,0,1,1.71.17l.25.05.44.12.14,0c.19.06.37.12.54.19a2.55,2.55,0,0,1,.35.14,3.54,3.54,0,0,1,.52.25l.25.13a6.36,6.36,0,0,1,.74.45,5.07,5.07,0,0,1,.46.35,3.4,3.4,0,0,1,.31.25.8.8,0,0,1,.19.18,2.91,2.91,0,0,1,.27.24l.08.09a7.14,7.14,0,0,1,.9,1.09c.08.12.17.24.24.37a4.88,4.88,0,0,1,.34.58,1.69,1.69,0,0,1,.17.36,3.73,3.73,0,0,1,.16.35l.16.4A8.88,8.88,0,0,1,228,210.5Z"/><path class="cls-2" d="M175.5,236.73v0a9.07,9.07,0,0,1-.09,1.28s0,.09,0,.13,0,.25-.07.37a7.8,7.8,0,0,1-.51,1.64,8,8,0,0,1-.78,1.44c-.16.23-.33.47-.51.69v0c-.18.21-.37.42-.57.62a7.23,7.23,0,0,1-.59.53l-.14.11a5.23,5.23,0,0,1-.55.41l-.11.08c-.2.13-.41.26-.62.37a8.61,8.61,0,0,1-2.46.89c-.22,0-.44.08-.66.1l-.15,0-.32,0-.57,0H149.25a8.75,8.75,0,0,1,0-17.5h17.5a8.74,8.74,0,0,1,1.78.18,7.58,7.58,0,0,1,.82.21h0a8.06,8.06,0,0,1,1.18.47h0a7.9,7.9,0,0,1,1.09.63h0a8,8,0,0,1,1,.78,8.37,8.37,0,0,1,1.13,1.24,5,5,0,0,1,.38.56,5.09,5.09,0,0,1,.3.5c.11.21.22.42.32.64s.24.61.34.92a9.54,9.54,0,0,1,.29,1.2.5.5,0,0,0,0,.12A9.07,9.07,0,0,1,175.5,236.73Z"/><path class="cls-2" d="M175.5,210.5a8.75,8.75,0,0,1-8.75,8.75h-17.5a8.75,8.75,0,0,1,0-17.5h17.5A8.75,8.75,0,0,1,175.5,210.5Z"/><path class="cls-2" d="M254.23,78.66l0-.32a.77.77,0,0,0,0-.15c0-.22-.06-.44-.1-.66a8.61,8.61,0,0,0-.34-1.23,9.45,9.45,0,0,0-.52-1.17l0-.06c-.12-.21-.24-.42-.37-.62a.76.76,0,0,0-.08-.11,5.23,5.23,0,0,0-.41-.55.67.67,0,0,0-.11-.14,7.23,7.23,0,0,0-.53-.59c-.2-.2-.41-.39-.62-.57h0c-.22-.18-.46-.35-.69-.51a8.38,8.38,0,0,0-1.44-.78l-.47-.18a7.76,7.76,0,0,0-.82-.25l-.41-.09c-.22,0-.44-.08-.66-.1l-.15,0a3.16,3.16,0,0,0-.32,0l-.59,0H70.5a8.75,8.75,0,0,0-8.75,8.75v35A8.75,8.75,0,0,0,70.5,123h175a8.56,8.56,0,0,0,2.62-.4,7.64,7.64,0,0,0,.8-.29,9.06,9.06,0,0,0,1.12-.57h0a8.81,8.81,0,0,0,1.34-1c.2-.19.4-.38.59-.59a8.81,8.81,0,0,0,1-1.34h0a9.06,9.06,0,0,0,.57-1.12,7.64,7.64,0,0,0,.29-.8,8.67,8.67,0,0,0,.22-.84,8.54,8.54,0,0,0,.18-1.76v-35C254.25,79.05,254.24,78.86,254.23,78.66ZM236.75,105.5H79.25V88h157.5Z"/><path class="cls-2" d="M254.23,139.91l0-.32a.77.77,0,0,0,0-.15c0-.22-.06-.44-.1-.66a8.61,8.61,0,0,0-.34-1.23,9.45,9.45,0,0,0-.52-1.17l0-.06c-.12-.21-.24-.42-.37-.62a.76.76,0,0,0-.08-.11,5.23,5.23,0,0,0-.41-.55.67.67,0,0,0-.11-.14,7.23,7.23,0,0,0-.53-.59c-.2-.2-.41-.39-.62-.57h0c-.22-.18-.46-.35-.69-.51a8.77,8.77,0,0,0-1.91-1c-.27-.09-.54-.18-.82-.25l-.41-.09c-.22,0-.44-.08-.66-.1l-.15,0a3.16,3.16,0,0,0-.32,0l-.59,0H70.5a8.75,8.75,0,0,0-8.75,8.75v35a8.75,8.75,0,0,0,8.75,8.75h175a8.56,8.56,0,0,0,2.62-.4,7.64,7.64,0,0,0,.8-.29A9.06,9.06,0,0,0,250,183h0a8.81,8.81,0,0,0,1.34-1c.2-.19.4-.38.59-.59a8.81,8.81,0,0,0,1-1.34,0,0,0,0,1,0,0,9.06,9.06,0,0,0,.57-1.12,7.64,7.64,0,0,0,.29-.8,8.67,8.67,0,0,0,.22-.84,8.54,8.54,0,0,0,.18-1.76v-35C254.25,140.3,254.24,140.11,254.23,139.91Zm-17.48,26.84H79.25v-17.5h157.5Z"/></g></g></g></g></svg>