<svg xmlns="http://www.w3.org/2000/svg" viewBox="0 0 551.56 549.6"><g id="Layer_2" data-name="Layer 2"><g id="Layer_1-2" data-name="Layer 1"><path d="M416.16,549.6a11.68,11.68,0,0,1-11.67-11.67V457.48a11.67,11.67,0,1,1,23.34,0v80.45A11.67,11.67,0,0,1,416.16,549.6Z"/><path d="M360,549.6a11.68,11.68,0,0,1-11.67-11.67V463a11.67,11.67,0,0,1,23.34,0v74.92A11.67,11.67,0,0,1,360,549.6Z"/><path d="M303.87,549.6a11.68,11.68,0,0,1-11.67-11.67V463a11.67,11.67,0,0,1,23.34,0v74.92A11.66,11.66,0,0,1,303.87,549.6Z"/><path d="M247.69,549.6A11.68,11.68,0,0,1,236,537.93V463a11.67,11.67,0,0,1,23.34,0v74.92A11.65,11.65,0,0,1,247.69,549.6Z"/><path d="M191.55,549.6a11.68,11.68,0,0,1-11.67-11.67V463a11.67,11.67,0,1,1,23.34,0v74.92A11.65,11.65,0,0,1,191.55,549.6Z"/><path d="M135.4,549.6a11.68,11.68,0,0,1-11.67-11.67V457.48a11.67,11.67,0,1,1,23.34,0v80.45A11.66,11.66,0,0,1,135.4,549.6Z"/><path d="M416.16,103.79a11.68,11.68,0,0,1-11.67-11.67V11.67a11.67,11.67,0,1,1,23.34,0V92.15a11.66,11.66,0,0,1-11.67,11.64Z"/><path d="M360,98.26a11.68,11.68,0,0,1-11.67-11.67V11.67a11.67,11.67,0,0,1,23.34,0V86.59A11.68,11.68,0,0,1,360,98.26Z"/><path d="M303.87,98.26A11.68,11.68,0,0,1,292.2,86.59V11.67a11.67,11.67,0,0,1,23.34,0V86.59A11.68,11.68,0,0,1,303.87,98.26Z"/><path d="M247.69,98.26A11.68,11.68,0,0,1,236,86.59V11.67a11.67,11.67,0,0,1,23.34,0V86.59A11.66,11.66,0,0,1,247.69,98.26Z"/><path d="M191.55,98.26a11.68,11.68,0,0,1-11.67-11.67V11.67a11.67,11.67,0,1,1,23.33,0V86.59a11.66,11.66,0,0,1-11.67,11.67Z"/><path d="M135.4,103.79a11.68,11.68,0,0,1-11.67-11.67V11.67a11.67,11.67,0,1,1,23.33,0V92.15a11.65,11.65,0,0,1-11.67,11.64Z"/><path d="M92.54,146.09H11.67a11.67,11.67,0,0,1,0-23.34H92.54a11.67,11.67,0,0,1,0,23.34Z"/><path d="M86.59,202.26H11.67a11.67,11.67,0,0,1,0-23.34H86.59a11.67,11.67,0,0,1,0,23.34Z"/><path d="M86.59,258.4H11.67a11.67,11.67,0,0,1,0-23.34H86.59a11.67,11.67,0,1,1,0,23.34Z"/><path d="M86.59,314.54H11.67a11.67,11.67,0,0,1,0-23.34H86.59a11.67,11.67,0,0,1,0,23.34Z"/><path d="M86.59,370.68H11.67a11.67,11.67,0,0,1,0-23.34H86.59a11.67,11.67,0,0,1,0,23.34Z"/><path d="M92.52,426.84H11.67a11.67,11.67,0,1,1,0-23.34H92.52a11.67,11.67,0,1,1,0,23.34Z"/><path d="M539.89,146.09H459a11.67,11.67,0,0,1,0-23.34h80.88a11.67,11.67,0,0,1,0,23.34Z"/><path d="M539.89,202.26H465a11.67,11.67,0,0,1,0-23.34h74.92a11.67,11.67,0,0,1,0,23.34Z"/><path d="M539.89,258.4H465a11.67,11.67,0,0,1,0-23.34h74.92a11.67,11.67,0,0,1,0,23.34Z"/><path d="M539.89,314.54H465a11.67,11.67,0,0,1,0-23.34h74.92a11.67,11.67,0,0,1,0,23.34Z"/><path d="M539.89,370.68H465a11.67,11.67,0,0,1,0-23.34h74.92a11.67,11.67,0,0,1,0,23.34Z"/><path d="M539.89,426.84H463.22a11.67,11.67,0,0,1,0-23.34h76.67a11.67,11.67,0,0,1,0,23.34Z"/><path d="M387.36,474.68H164.2A89.39,89.39,0,0,1,74.93,385.4V164.2A89.38,89.38,0,0,1,164.2,74.93H387.34a89.38,89.38,0,0,1,89.27,89.27V385.4a89.35,89.35,0,0,1-89.25,89.28ZM164.2,98.27a66,66,0,0,0-65.94,65.94v221.2a66,66,0,0,0,65.94,65.94H387.34a66,66,0,0,0,65.94-65.94V164.21a66,66,0,0,0-65.94-65.94Z"/><path d="M357.17,419.7H194.4c-37.64,0-68.27-29.87-68.27-66.6V196.51c0-36.72,30.63-66.59,68.27-66.59H357.17c37.64,0,68.27,29.89,68.27,66.59V353.1C425.44,389.83,394.81,419.7,357.17,419.7ZM194.4,153.24c-24.78,0-44.94,19.41-44.94,43.26V353.09c0,23.85,20.16,43.26,44.94,43.26H357.17c24.78,0,44.94-19.41,44.94-43.26V196.52c0-23.85-20.16-43.26-44.94-43.26H194.4Z"/><path d="M318.64,356.68H232.89c-22.87,0-41.49-18.22-41.49-40.63V233.57c0-22.4,18.62-40.63,41.49-40.63h85.75c22.87,0,41.49,18.23,41.49,40.63v82.48C360.15,338.46,341.53,356.68,318.64,356.68ZM232.91,216.29c-10,0-18.15,7.74-18.15,17.26V316c0,9.54,8.17,17.29,18.15,17.29h85.75c10,0,18.16-7.75,18.16-17.29V233.55c0-9.52-8.17-17.26-18.16-17.26Z"/></g></g></svg>