<svg xmlns="http://www.w3.org/2000/svg" viewBox="0 0 492.78 403.22"><defs><style>.cls-1{fill:#fff;}</style></defs><g id="Layer_2" data-name="Layer 2"><g id="Layer_1-2" data-name="Layer 1"><g id="Layer_2-2" data-name="Layer 2"><g id="Layer_1-2-2" data-name="Layer 1-2"><polygon class="cls-1" points="322.88 385.6 211.92 385.6 221.42 369.6 301.88 369.6 284.78 340.8 296.26 340.8 322.88 385.6"/><path class="cls-1" d="M480.19,54.5a4.09,4.09,0,0,1,0,.7v196H54.59v-16h404.6V49.6h15.4A5.26,5.26,0,0,1,480.19,54.5Z"/><path class="cls-1" d="M480.2,284.8v16.8a5.26,5.26,0,0,1-4.88,5.6,4.33,4.33,0,0,1-.72,0H60.2a5.24,5.24,0,0,1-5.6-4.87,4.45,4.45,0,0,1,0-.73V291.2h399a4.57,4.57,0,0,0,.74,0,5.26,5.26,0,0,0,4.87-5.6v-.8Z"/><path d="M453.59,0H39.2A39.46,39.46,0,0,0,0,39.2V285.6a39.46,39.46,0,0,0,39.2,39.2H178.32l-26.61,44.8H140a17,17,0,0,0-1.75,0A16.82,16.82,0,1,0,140,403.2H352.79a16.8,16.8,0,0,0,0-33.6H341.07l-26.61-44.8H453.59a39.46,39.46,0,0,0,39.19-39.2V39.2A39.46,39.46,0,0,0,453.59,0Zm-420,39.2a5.26,5.26,0,0,1,4.91-5.6,4.09,4.09,0,0,1,.7,0H453.59a5.26,5.26,0,0,1,5.61,4.9c0,.23,0,.47,0,.7v196H33.59Zm0,247.13c0-.25,0-.49,0-.73V268.8H459.2v16.8a5.26,5.26,0,0,1-4.87,5.6,4.57,4.57,0,0,1-.74,0H39.2A5.26,5.26,0,0,1,33.59,286.33ZM217.53,324.8h57.75l9.5,16,17.1,28.8h-111Z"/></g></g></g></g></svg>