<svg xmlns="http://www.w3.org/2000/svg" viewBox="0 0 545.72 348.16"><defs><style>.cls-1{stroke:#000;stroke-miterlimit:10;}</style></defs><g id="Layer_2" data-name="Layer 2"><g id="Layer_1-2" data-name="Layer 1"><path class="cls-1" d="M505.14.51H454.69L437.43,25.35H374L356.71.5H306.26C293,13.75,284.61,22.11,272.86,33.88,261.11,22.11,252.75,13.75,239.46.5H40.58C24.91,16.13,16.13,24.9.5,40.58V71.43L23.12,87.14v108L.5,210.84v28.63c15.63,15.67,24.4,24.44,40.08,40.07v59.21a8.91,8.91,0,0,0,8.91,8.91H230.56a8.91,8.91,0,0,0,8.9-8.91v-59.2c13.29-13.25,21.65-21.61,33.4-33.39,11.75,11.78,20.11,20.14,33.4,33.39v59.2a8.91,8.91,0,0,0,8.91,8.91H496.24a8.9,8.9,0,0,0,8.9-8.91v-59.2c15.68-15.64,24.45-24.4,40.08-40.08V40.59C529.59,24.91,520.82,16.14,505.14.51Zm-345.53,167a146.73,146.73,0,0,1,16.16,11.53,159.45,159.45,0,0,1,27.35,29.44,92.7,92.7,0,0,1-51.66,24,177.92,177.92,0,0,0,8-39.55A179.16,179.16,0,0,0,159.61,167.54Zm31.53-3.83a174.36,174.36,0,0,0-18-18.17,153.63,153.63,0,0,1,19.77-3.21A157.62,157.62,0,0,1,233,143.81a92.51,92.51,0,0,1-19.55,53.48A176.28,176.28,0,0,0,191.14,163.71Zm1.78-43.11a179.17,179.17,0,0,0-25.38-.18,145.42,145.42,0,0,1,11.53-16.16A159.31,159.31,0,0,1,208.5,76.92a92.64,92.64,0,0,1,24,51.66A177.94,177.94,0,0,0,192.92,120.6Zm-64.35-73a171.59,171.59,0,0,0-8.15,64.93A145.62,145.62,0,0,1,104.25,101,159.68,159.68,0,0,1,76.91,71.53,92.7,92.7,0,0,1,128.57,47.57ZM88.89,116.33a174.36,174.36,0,0,0,18,18.17,155.36,155.36,0,0,1-19.77,3.2A158.17,158.17,0,0,1,47,136.24,92.59,92.59,0,0,1,66.54,82.75,176.28,176.28,0,0,0,88.89,116.33Zm23.59,43.29A143.13,143.13,0,0,1,101,175.78a159.05,159.05,0,0,1-29.44,27.34,92.76,92.76,0,0,1-24-51.66,177.94,177.94,0,0,0,39.55,8A180.52,180.52,0,0,0,112.48,159.62Zm-77.86-125a15.53,15.53,0,0,1,11-4.56h0a15.59,15.59,0,1,1-11,4.57Zm22,210.76a15.57,15.57,0,1,1,4.57-11A15.54,15.54,0,0,1,56.66,245.39Zm27,80H62.84V279.73H83.7Zm45.18,0H106V279.73h22.91ZM136.23,233a92.46,92.46,0,0,1-53.48-19.55,177.48,177.48,0,0,0,33.57-22.35,172.51,172.51,0,0,0,18.17-18,154.06,154.06,0,0,1,3.21,19.78A157.64,157.64,0,0,1,136.23,233Zm6.1-145.93A158.1,158.1,0,0,1,143.8,47a92.54,92.54,0,0,1,53.49,19.55,176.91,176.91,0,0,0-33.58,22.35,172.51,172.51,0,0,0-18.17,18A154.06,154.06,0,0,1,142.33,87.11Zm31.74,238.27H151.15V279.73h22.92Zm43.12,0H196.33V279.73h20.86Zm28.21-80a15.6,15.6,0,1,1,4.56-11A15.51,15.51,0,0,1,245.4,245.4Zm0-188.72a15.53,15.53,0,0,1-11,4.56h0a15.53,15.53,0,1,1,11-4.55ZM425.29,167.53a146.94,146.94,0,0,1,16.17,11.54A160,160,0,0,1,468.8,208.5a92.7,92.7,0,0,1-51.66,24A171.39,171.39,0,0,0,425.29,167.53Zm31.53-3.82h0a174.36,174.36,0,0,0-18-18.17,155.36,155.36,0,0,1,19.77-3.2,158.17,158.17,0,0,1,40.13,1.47,92.56,92.56,0,0,1-19.56,53.48A176.21,176.21,0,0,0,456.82,163.71Zm1.78-43.11a179.16,179.16,0,0,0-25.38-.18,145.53,145.53,0,0,1,11.53-16.17,159.39,159.39,0,0,1,29.44-27.34,92.7,92.7,0,0,1,24,51.66A177.92,177.92,0,0,0,458.6,120.6Zm-64.35-73a171.62,171.62,0,0,0-8.15,64.93A146.73,146.73,0,0,1,369.94,101a159.45,159.45,0,0,1-27.35-29.44A92.7,92.7,0,0,1,394.25,47.56Zm-39.68,68.76a173.38,173.38,0,0,0,18,18.17,153.63,153.63,0,0,1-19.77,3.21,157.62,157.62,0,0,1-40.12-1.47,92.48,92.48,0,0,1,19.55-53.48A176.52,176.52,0,0,0,354.57,116.32Zm23.6,43.29a145.42,145.42,0,0,1-11.53,16.16,159.71,159.71,0,0,1-29.43,27.35,92.64,92.64,0,0,1-24-51.66,177.92,177.92,0,0,0,39.55,8A179.17,179.17,0,0,0,378.17,159.61Zm-77.86-125a15.61,15.61,0,1,1-4.56,11A15.58,15.58,0,0,1,300.31,34.62Zm22,210.77a15.57,15.57,0,1,1,4.57-11A15.62,15.62,0,0,1,322.35,245.39Zm27,80H328.52V279.73h20.86Zm45.18,0H371.65V279.73h22.91ZM401.91,233a92.62,92.62,0,0,1-53.48-19.55A176.73,176.73,0,0,0,382,191.13a172.51,172.51,0,0,0,18.18-18,155.65,155.65,0,0,1,3.2,19.77A158.16,158.16,0,0,1,401.91,233ZM408,87.11A157.7,157.7,0,0,1,409.48,47,92.59,92.59,0,0,1,463,66.53a177,177,0,0,0-33.57,22.36,171.46,171.46,0,0,0-18.17,18A153.63,153.63,0,0,1,408,87.11Zm31.73,238.27H416.83V279.73h22.91Zm43.13,0H462V279.73h20.86Zm28.22-80a15.6,15.6,0,1,1,4.56-11A15.62,15.62,0,0,1,511.09,245.4Zm0-188.72a15.61,15.61,0,1,1,4.56-11A15.55,15.55,0,0,1,511.09,56.68Z"/></g></g></svg>